<svg id="Capa_1" enable-background="new 0 0 512 512" height="512" viewBox="0 0 512 512" width="512" xmlns="http://www.w3.org/2000/svg" xmlns:xlink="http://www.w3.org/1999/xlink"><linearGradient id="SVGID_1_" gradientUnits="userSpaceOnUse" x1="256" x2="256" y1="512" y2="0"><stop offset="0" stop-color="#fd5900"/><stop offset="1" stop-color="#ffde00"/></linearGradient><g><g><path d="m507.605 443.973-102.861-102.862c-5.859-5.859-15.352-5.859-21.211 0l-10.605 10.605-30.008-30.008c29.271-34.117 47.08-78.337 47.08-126.708 0-16.465-2.276-32.371-6.136-47.653l61.856-61.856c5.867 2.806 12.353 4.509 19.28 4.509 24.814 0 45-20.186 45-45s-20.186-45-45-45-45 20.186-45 45c0 6.927 1.703 13.413 4.51 19.279l-51.497 51.497c-30.441-68.117-98.712-115.776-178.013-115.776-107.52 0-195 87.48-195 195s87.48 195 195 195c48.371 0 92.591-17.809 126.709-47.08l30.008 30.008-10.605 10.605c-5.859 5.859-5.859 15.352 0 21.211l102.861 102.861c2.93 2.93 6.768 4.395 10.605 4.395s7.676-1.465 10.605-4.395l42.422-42.422c5.86-5.859 5.86-15.351 0-21.21zm-42.605-413.973c8.276 0 15 6.724 15 15s-6.724 15-15 15-15-6.724-15-15 6.724-15 15-15zm-435 165c0-90.981 74.019-165 165-165 71.241 0 131.9 45.469 154.948 108.842l-75.668 75.668c-5.867-2.807-12.353-4.51-19.28-4.51s-13.413 1.703-19.279 4.51l-60.23-60.23c2.807-5.867 4.51-12.353 4.51-19.279 0-24.814-20.186-45-45-45s-45 20.186-45 45c0 6.927 1.703 13.413 4.51 19.279l-62.849 62.849c-.981-7.259-1.662-14.607-1.662-22.129zm240 60c0 8.276-6.724 15-15 15s-15-6.724-15-15 6.724-15 15-15 15 6.724 15 15zm-120-120c0 8.276-6.724 15-15 15s-15-6.724-15-15 6.724-15 15-15 15 6.724 15 15zm45 225c-71.241 0-131.9-45.469-154.948-108.842l75.668-75.668c5.867 2.807 12.353 4.51 19.279 4.51s13.413-1.703 19.279-4.51l60.23 60.23c-2.805 5.867-4.508 12.353-4.508 19.28 0 24.814 20.186 45 45 45s45-20.186 45-45c0-6.927-1.703-13.413-4.51-19.279l62.849-62.849c.98 7.258 1.661 14.606 1.661 22.128 0 90.981-74.019 165-165 165zm259.578 115.789-81.65-81.65 21.211-21.211 81.65 81.65z" fill="url(#SVGID_1_)"/></g></g></svg>